<?xml version="1.0" encoding="utf-8"?>
<!-- Generator: Adobe Illustrator 24.1.2, SVG Export Plug-In . SVG Version: 6.00 Build 0)  -->
<svg version="1.1" id="Camada_1" xmlns="http://www.w3.org/2000/svg" xmlns:xlink="http://www.w3.org/1999/xlink" x="0px" y="0px"
	 viewBox="0 0 1920 1080" style="enable-background:new 0 0 1920 1080;" xml:space="preserve">
<style type="text/css">
	.st0{fill:#E65100;}
	.st1{fill:#1D1D1B;}
	.st2{fill:#F4D77E;}
	.st3{opacity:0.4;fill:#D1CC20;stroke:#CCC715;stroke-miterlimit:10;enable-background:new    ;}
	.st4{fill:none;}
	.st5{opacity:0.4;}
	.st6{fill:#D1CC20;}
	.st7{fill:none;stroke:#CCC715;stroke-miterlimit:10;}
	.st8{fill:#D1CC20;stroke:#CCC715;stroke-miterlimit:10;}
</style>
<g id="Camada_1_1_">
	
		<image style="overflow:visible;opacity:0.4;enable-background:new    ;" width="100" height="100" xlink:href="624828F.png"  transform="matrix(1.5103 0 0 1.5373 780.6889 212.64)">
	</image>
	<g>
		<ellipse class="st0" cx="966.3" cy="612.3" rx="432.1" ry="439.8"/>
		<g>
			<path class="st1" d="M1413.1,612.3c0,59.5-11.4,119.1-33.8,174.1c-22.3,55.1-55.5,105.5-96.8,147.7
				c-41.3,42.2-90.8,76.2-144.9,99.1c-54.1,23-112.7,34.9-171.3,35.1c-58.6,0.1-117.4-11.4-171.7-34.2
				c-54.3-22.7-104.2-56.5-145.8-98.7c-41.6-42.3-75-92.9-97.5-148.2c-22.6-55.3-34.3-115.2-34.3-175c0.1-59.8,11.7-119.7,34.3-175
				c22.6-55.3,55.9-105.9,97.5-148.2c41.6-42.2,91.5-76,145.8-98.7c54.3-22.8,113-34.4,171.7-34.2c58.6,0.2,117.3,12.1,171.3,35.1
				c54.1,23,103.6,56.9,144.9,99.1c41.3,42.2,74.5,92.6,96.8,147.7C1401.7,493.2,1413.1,552.8,1413.1,612.3z M1383.7,612.3
				c-0.1-55.7-10.9-111.2-31.9-162.5c-20.9-51.3-52-98.4-90.6-137.6c-38.7-39.3-85-70.6-135.5-91.7
				c-50.4-21.2-104.9-31.9-159.4-31.7c-54.5,0.2-108.9,11.2-159.1,32.6c-50.2,21.3-96.2,52.9-134.6,92.1
				c-38.4,39.2-69.2,86.1-89.9,137.2c-20.8,51.1-31.4,106.4-31.4,161.7c0,55.3,10.6,110.6,31.4,161.7c20.7,51.1,51.5,98,89.9,137.2
				c38.4,39.2,84.3,70.8,134.6,92.1c50.2,21.4,104.6,32.4,159.1,32.6c54.5,0.1,109-10.6,159.4-31.7c50.4-21.1,96.8-52.4,135.5-91.7
				c38.7-39.3,69.7-86.3,90.6-137.6C1372.8,723.5,1383.6,668,1383.7,612.3z"/>
		</g>
	</g>
	<g>
		<path class="st0" d="M1339.1,396.5c18.6-8.3,97.4-45.8,136.5-138.3c48.7-114.9-4.1-219.6-11.2-233.1
			c-20.3,38.1-76.5,131-188.6,180.5c-43,19-75,31.8-106.4,34.8"/>
		<path class="st1" d="M1338.7,395.6c16.2-8,31.5-17.8,45.7-28.8c14.2-11.1,27.3-23.5,39-37.1c11.7-13.6,21.9-28.4,30.4-44
			c4.3-7.8,8.1-15.9,11.4-24.1c3.2-8.3,7.2-16.2,10.1-24.6c6.3-16.7,10.4-34.1,13-51.9c2.4-17.8,3.1-35.9,1.9-54
			c-1.2-18.1-4.1-36.1-8.6-53.8c-4.5-17.6-10.4-35-18.2-51.5h1.8l0,0c-4.6,15.7-10.8,30.8-18.2,45.4c-7.3,14.6-15.8,28.8-25.3,42.2
			c-4.7,6.7-9.7,13.3-15,19.7c-2.6,3.2-5.3,6.4-8,9.5c-2.8,3.1-5.6,6.1-8.4,9.1c-5.7,6-11.6,11.8-17.8,17.4c-3,2.8-6.2,5.5-9.4,8.2
			c-3.2,2.7-6.5,5.2-9.7,7.9c-13.1,10.2-27.1,19.4-41.6,27.6l-5.5,3l-5.6,2.9l-5.6,2.8l-5.7,2.6l-5.6,2.6l-5.5,2.4
			c-3.7,1.5-7.4,3-11.1,4.4c-15,5.5-30.7,10.1-47.3,12.2c-8.3,1.1-16.8,1.5-25.3,1c-8.5-0.5-17.1-1.8-25.3-5
			c-0.6-0.2-0.9-0.9-0.6-1.5c0.1-0.2,0.3-0.5,0.5-0.6c7.4-4.7,14.3-8.6,21-12.7c6.7-4.1,13.3-8,19.9-11.9
			c13.2-7.8,26.5-15.2,40.4-22c3.5-1.7,7-3.4,10.5-5l10.4-4.7l5-2.3l5-2.4l5-2.4l4.9-2.6c13.1-6.8,25.9-14.4,38.3-22.6
			c24.9-16.4,48.3-35.5,70.5-56.7c11-10.6,21.8-21.7,32.3-33.3c10.5-11.6,20.7-23.7,31-36.1l0,0l0.8-1.7l0.9,1.7
			c9,16.1,16.1,33.2,21.8,50.9c5.7,17.7,9.7,35.9,12.1,54.5c2.3,18.6,2.8,37.4,1.4,56.2c-1.6,18.8-4.9,37.5-10.5,55.6
			c-1.4,4.5-2.8,9.1-4.5,13.5c-0.8,2.2-1.6,4.5-2.5,6.7c-0.9,2.2-2,4.3-3.1,6.4c-4.3,8.4-8.9,16.7-14.1,24.6
			c-10.2,15.8-22,30.5-35.2,43.6c-13.1,13.2-27.5,24.9-42.9,35.1c-15.3,10.2-31.5,18.9-48.4,25.6c-0.5,0.2-1.1-0.1-1.3-0.6
			C1338,396.4,1338.2,395.8,1338.7,395.6z"/>
	</g>
	<g>
		<path class="st0" d="M606.1,388.8c-18.3-9-95.6-49.5-131.3-143.5c-44.3-116.8,12.3-219.2,19.9-232.5
			c18.8,38.8,71.6,133.8,181.7,187.7c42.3,20.7,82,24.7,113.3,28.9"/>
		<path class="st1" d="M605.6,389.8c-17.1-6.4-33.3-15.5-48.5-26.1c-15.1-10.7-29.3-22.9-41.9-36.9c-25.3-27.7-44.2-61.7-54.7-98.2
			c-1.4-4.5-2.4-9.2-3.6-13.8l-1.4-7c-0.5-2.3-1-4.7-1.3-7l-1.1-7c-0.3-2.4-0.6-4.7-0.8-7.1c-0.6-4.7-0.8-9.4-1.2-14.2
			c-0.4-9.5-0.5-19,0-28.4c0.6-9.4,1.6-18.8,3.1-28.1c2.9-18.6,8-36.8,14.6-54.2c3.4-8.7,7-17.3,11.2-25.5c4.2-8.3,8.7-16.4,14-24
			l0.8-1.3l0.9,1.3C514.3,39,533.7,64,555.1,86.8c21.4,22.8,44.4,43.5,69.1,61.3c3.1,2.2,6.2,4.4,9.4,6.5l4.7,3.2l4.8,3.1
			c6.4,4.2,12.9,8,19.5,11.8c6.6,3.8,13.3,7.3,20.1,10.6c6.7,3.3,13.3,6.4,20.1,9.3c13.6,6,27.6,11.4,42.2,16.9
			c7.3,2.8,14.7,5.5,22.2,8.6c7.5,3.1,15.1,6.2,22.6,10.3c0.5,0.3,0.7,0.9,0.4,1.5c-0.1,0.3-0.4,0.5-0.7,0.6
			c-8.3,2-16.4,3.2-24.6,3.9c-8.2,0.8-16.5,0.9-24.8,0.6c-16.6-0.7-33.4-3.6-49.5-9c-8.1-2.6-16-6-23.6-9.8c-7.5-3.8-14.8-7.7-22-12
			c-3.6-2.1-7.2-4.3-10.7-6.6c-3.5-2.3-7-4.6-10.4-7c-6.9-4.7-13.5-9.8-20-15.1c-25.9-21.1-48.6-46.1-67.2-73.5
			c-9.3-13.7-17.6-28-24.9-42.8c-7.2-14.8-13.4-30.1-18-45.8l1.8,0.1c-7.7,16.6-13.9,33.8-18.7,51.3c-2.3,8.8-4.5,17.5-6.2,26.4
			c-0.8,4.4-1.6,8.9-2.2,13.3c-0.4,2.2-0.7,4.4-0.9,6.7c-0.3,2.2-0.6,4.4-0.8,6.7c-1.8,17.9-1.9,35.9-0.5,53.6
			c1.7,17.8,4.8,35.4,10,52.4c10.1,34.1,27.1,65.9,49.5,93.6c22.4,27.7,49.9,51.4,80.7,70.5c0.5,0.3,0.6,0.9,0.3,1.4
			C606.6,389.8,606.1,389.9,605.6,389.8z"/>
	</g>
	<g>
		<path class="st2" d="M662.3,685.9l182.4,49.6c0,0,37.4-49.7,34.7-49.6c-2.6,0.1-221.6-132.5-221.6-132.5v132.5"/>
		<path class="st1" d="M662.6,684.9c16,0.9,31.7,3.4,47.2,6.3c15.5,3,30.8,6.5,46.1,10.6c15.2,4.1,30.3,8.7,45.2,14
			c14.9,5.3,29.6,11.2,43.9,18.7l-1.1,0.4l0,0c6-12.2,12.5-24,19-35.8l4.8-8.7c0.8-1.4,1.6-2.9,2.2-4.3l1-2c0.1-0.3,0.3-0.6,0.3-0.8
			c0-0.1,0.1-0.2,0.1-0.2c0,0,0,0,0,0c-0.1,0.1-0.1,0.2-0.1,0.3c-0.1,0.2-0.1,0.4-0.2,0.6l-0.1,0.3c-0.1,0.3-0.1,0.7-0.2,1
			c0,0.4,0,0.7,0,1.1c0,0,0.2,2.5,0.9,3.6c0.8,1.4,1.4,2.4,3.2,3.6c1.4,1.1,4.5,1.5,4.9,1.4c-1.1,0-2.3-0.2-3.4-0.6
			c-0.6-0.2-1.1-0.4-1.6-0.6l-0.3-0.1l-0.6-0.3l-2.5-1.1l-4.6-2.1l-9-4.4c-23.9-11.8-47.2-24.7-70.1-38.1
			c-22.9-13.4-45.4-27.6-67.2-42.9c-10.9-7.6-21.6-15.6-32.1-23.9c-10.5-8.4-20.9-17-30.6-26.5l0,0l1.5-0.9v132.5c0,0.6-0.4,1-1,1
			s-1-0.5-1-1V553.3v-1.8l1.5,0.9l0,0c12.9,4.2,25.3,9.3,37.5,14.7c12.2,5.4,24.2,11.2,36,17.2c23.7,12.1,46.7,25.3,69.3,39.3
			c22.6,13.9,44.9,28.3,66.7,43.5l8.2,5.6l4,2.8l1.9,1.3l0.4,0.3l0.2,0.1c-0.3-0.2-0.7-0.3-1.1-0.4c-0.7-0.2-1.6-0.2-2.3-0.1
			c0.4-0.1,3.6,0.3,5,1.4c1.8,1.2,2.5,2.3,3.3,3.7c0.7,1.2,0.9,3.8,0.9,3.8c0,0.4,0,0.8-0.1,1.3c0,0.4-0.1,0.9-0.2,1.2l-0.1,0.4
			c-0.1,0.3-0.2,0.6-0.3,0.9l-0.4,0.9l-0.3,0.6c-0.2,0.4-0.3,0.6-0.5,0.9c-0.3,0.5-0.6,0.9-0.9,1.4c-0.6,0.8-1.1,1.5-1.7,2.3
			c-1.1,1.4-2.2,2.7-3.3,4.1c-2.2,2.6-4.4,5.2-6.7,7.7c-9.1,10-18.4,19.7-28.5,28.9l0,0l-0.2,0.4l-0.9,0
			c-16.1-0.8-31.7-3.2-47.2-6.1c-15.5-3-30.8-6.6-46-10.8c-15.2-4.2-30.2-8.9-45.1-14.2c-14.9-5.4-29.6-11.2-44-18.5
			c-0.5-0.3-0.7-0.9-0.5-1.4C661.8,685.1,662.2,684.8,662.6,684.9z"/>
	</g>
	<g>
		<path class="st2" d="M1283.6,705.8l-186.5,29.6c0,0-32-53.4-29.4-53c2.6,0.3,234.2-107.8,234.2-107.8l-13.8,131.8"/>
		<path class="st1" d="M1283.8,706.9c-15,5.8-30.3,9.9-45.7,13.5c-15.4,3.6-30.9,6.4-46.4,8.7c-15.6,2.4-31.2,4.3-46.9,5.6
			c-15.7,1.3-31.5,2.2-47.5,1.8l-0.8,0l-0.2-0.5l0,0c-4.2-5.2-8.3-10.6-12.3-16c-4-5.4-7.9-10.9-11.7-16.5c-1.9-2.8-3.8-5.6-5.6-8.5
			c-0.9-1.5-1.8-2.9-2.7-4.4c-0.5-0.8-0.9-1.5-1.4-2.4c-0.2-0.4-0.5-0.9-0.7-1.4c-0.3-0.6-0.5-1-0.8-2.2l-0.2-0.7l-0.1-0.4
			c0-0.3-0.1-0.7-0.1-1s0-0.7,0.1-1c0,0,0.4-2,1-2.9c0.7-1.1,1.3-1.8,2.9-2.6c1.2-0.8,3.7-0.8,4-0.7c-0.5-0.2-1.1-0.2-1.7-0.1
			c-0.3,0-0.5,0.1-0.8,0.2l0.2-0.1l0.5-0.2l2.1-1l4.3-2.3l8.8-4.6c23.5-12.3,47.2-24.2,71.1-35.5c12-5.7,24-11.3,36.1-16.7
			c12.1-5.3,24.3-10.6,36.6-15.5c12.3-4.9,24.7-9.6,37.3-14c12.6-4.3,25.3-8.5,38.3-11.7l0,0l1.6-0.8l-0.2,1.8l-13.8,131.8
			c-0.1,0.6-0.6,1-1.1,0.9c-0.5-0.1-0.9-0.6-0.9-1.1l13.8-131.8l1.4,1l0,0c-11,8-22.3,15-33.7,21.9c-11.5,6.8-23.1,13.3-34.8,19.6
			c-11.7,6.3-23.6,12.2-35.5,18c-12,5.7-24,11.3-36.1,16.7c-24.2,10.8-48.6,21.2-73.4,30.8c-3.1,1.2-6.2,2.4-9.4,3.5l-4.8,1.7
			l-2.5,0.9l-0.6,0.2l-0.3,0.1c-0.4,0.1-0.9,0.3-1.4,0.4c-0.9,0.2-2,0.3-2.9,0.2c0.3,0.1,2.7,0.1,3.9-0.7c1.4-0.8,2.1-1.5,2.8-2.5
			c0.6-0.8,1-2.7,1-2.7c0-0.3,0.1-0.6,0.1-0.8c0-0.3,0-0.6-0.1-0.8l0-0.2c0-0.1-0.1-0.3-0.1-0.4c-0.1-0.4-0.1,0,0,0.2
			c0.1,0.3,0.2,0.6,0.3,0.9c0.2,0.7,0.5,1.4,0.8,2.1c0.6,1.5,1.2,3,1.9,4.5l4.1,9.1c2.8,6.1,5.6,12.2,8.3,18.3
			c2.8,6.1,5.5,12.3,8.1,18.5l0,0l-1-0.5c15.1-5.4,30.4-9.4,45.8-13c15.4-3.6,30.8-6.6,46.4-9.2c15.5-2.6,31.1-4.7,46.8-6.1
			c15.7-1.4,31.5-2.2,47.6-1.3c0.6,0,1,0.5,1,1.1C1284.4,706.3,1284.2,706.7,1283.8,706.9z"/>
	</g>
	<g>
		<g>
			<path class="st0" d="M606.2,404.8c0.2,1.1,0.4,2.3,0.6,3.4c-0.8-6.1-1.6-12.1-2.4-18.2c0.6,5.7,0.2,11.4,0,17.1
				c44.9,0,89.7,0,134.6,0c0-3.4,0-6.7,0-10.1c0-17.6-7.5-36-19.7-48.5c-6.1-6.7-13.3-11.4-21.7-14.2c-8-4.3-16.7-6.3-25.9-5.9
				c-17.4,0.8-35.5,6.6-47.6,20.1c-12.1,13.4-19.7,29.9-19.7,48.5c0,3.4,0,6.7,0,10.1c-0.1,17.5,7.6,36.1,19.7,48.5
				c6.1,6.7,13.3,11.4,21.7,14.2c8,4.3,16.7,6.3,25.9,5.9c17.4-0.8,35.5-6.6,47.6-20.1c12.3-13.7,19.1-29.7,19.7-48.5
				c0.4-13.3-0.4-25.2-3-38.7c-2.1-8.9-6.1-16.7-12-23.3c-4.8-7.5-11-13.3-18.9-17.6c-7.7-5-16.1-7.7-25-8.1
				c-8.9-2-17.9-1.6-26.8,1.2c-16.3,5.4-32,15.6-40.2,31.5c-2.3,5.5-4.5,10.9-6.8,16.4C603,380.5,603,392.6,606.2,404.8L606.2,404.8
				z"/>
		</g>
	</g>
	<g>
		<g>
			<path class="st0" d="M1228.4,395.6c24.6,0,48.3-22.1,47.1-48c-1.1-26-20.7-48-47.1-48c-24.6,0-48.3,22.1-47.1,48
				C1182.4,373.6,1202,395.6,1228.4,395.6L1228.4,395.6z"/>
		</g>
	</g>
	<g>
		<g>
			<path class="st0" d="M1224.7,414.2c10.7,0.4,20.6-1.8,29.8-6.8c9.6-3.2,17.9-8.6,24.9-16.3c7.6-7.1,12.9-15.6,16-25.4
				c4.9-9.4,7.1-19.5,6.7-30.4c-0.9-7-1.9-14-2.8-20.9c-3.7-13.3-10.3-24.9-19.9-34.8c-5.2-4.1-10.5-8.2-15.7-12.3
				c-12.1-7.1-25.1-10.7-39.1-10.8c-10.7-0.4-20.6,1.8-29.8,6.8c-9.6,3.2-17.9,8.6-24.9,16.3c-7.6,7.1-12.9,15.6-16,25.4
				c-4.9,9.4-7.1,19.5-6.7,30.4c0.9,7,1.9,14,2.8,20.9c3.7,13.3,10.3,24.9,19.9,34.8c5.2,4.1,10.5,8.2,15.7,12.3
				C1197.7,410.6,1210.8,414.2,1224.7,414.2L1224.7,414.2z"/>
		</g>
	</g>
	<g>
		<g>
			<path class="st0" d="M1228.4,421.3c5.3,0.2,10.3-0.9,14.9-3.4c4.8-1.6,9-4.3,12.5-8.1c3.8-3.6,6.4-7.8,8-12.7
				c2.4-4.7,3.5-9.8,3.3-15.2c-0.5-3.5-0.9-7-1.4-10.5c-1.8-6.7-5.2-12.5-9.9-17.4c-2.6-2-5.2-4.1-7.8-6.2c-6-3.6-12.5-5.3-19.5-5.4
				c-5.3-0.2-10.3,0.9-14.9,3.4c-4.8,1.6-9,4.3-12.5,8.1c-3.8,3.6-6.4,7.8-8,12.7c-2.4,4.7-3.5,9.8-3.3,15.2c0.5,3.5,0.9,7,1.4,10.5
				c1.8,6.7,5.2,12.5,9.9,17.4c2.6,2,5.2,4.1,7.8,6.2C1214.9,419.5,1221.5,421.3,1228.4,421.3L1228.4,421.3z"/>
		</g>
	</g>
	<g>
		<g>
			<path class="st0" d="M1205.4,405.7c0.2,1.1,0.4,2.3,0.6,3.4c-0.8-6.1-1.6-12.1-2.4-18.2c0.6,5.7,0.2,11.4,0,17.1
				c44.9,0,89.7,0,134.6,0c0-3.4,0-6.7,0-10.1c0-17.6-7.5-36-19.7-48.5c-6.1-6.7-13.3-11.4-21.7-14.2c-8-4.3-16.7-6.3-25.9-5.9
				c-17.4,0.8-35.5,6.6-47.6,20.1c-12.1,13.4-19.7,29.9-19.7,48.5c0,3.4,0,6.7,0,10.1c-0.1,17.5,7.6,36.1,19.7,48.5
				c6.1,6.7,13.3,11.4,21.7,14.2c8,4.3,16.7,6.3,25.9,5.9c17.4-0.8,35.5-6.6,47.6-20.1c12.3-13.7,19.1-29.7,19.7-48.5
				c0.4-13.3-0.4-25.2-3-38.7c-2.1-8.9-6.1-16.7-12-23.3c-4.8-7.5-11-13.3-18.9-17.6c-7.7-5-16.1-7.7-25-8.1
				c-8.9-2-17.9-1.6-26.8,1.2c-16.3,5.4-32,15.6-40.2,31.5c-2.3,5.5-4.5,10.9-6.8,16.4C1202.2,381.4,1202.2,393.5,1205.4,405.7
				L1205.4,405.7z"/>
		</g>
	</g>
</g>
<g id="Camada_2_1_">
	<polygon class="st3" points="977.1,225.3 948.3,305.1 976.1,343.8 1007.8,307.6 	"/>
	<path class="st3" d="M975.3,246c-0.2,0.6-18.3,56.9-18.3,56.9l16.9,27.4l19.9-25.5L975.3,246z"/>
	<polygon class="st3" points="872.5,262.2 893.2,315.8 919.7,320.2 917.5,286.3 	"/>
	<path class="st3" d="M880.8,270.4c0.1,0.4,15.7,37.1,15.7,37.1l17.6,4.6l-2.5-22.6L880.8,270.4z"/>
	<polygon class="st3" points="1085.7,269.4 1057.8,319.6 1031,320.2 1037.8,286.9 	"/>
	<path class="st3" d="M1076.1,276.5c-0.2,0.3-20.6,34.5-20.6,34.5l-18,2.1l5.5-22.1L1076.1,276.5z"/>
	<polyline class="st4" points="1057,1127 1046.7,1068.7 985.9,1032.7 891.9,1075.6 972.9,1091.4 986.7,1144.3 993.2,1131.7 
		992.9,1098.8 1032.5,1119.2 997.2,1231.8 950.7,1255 938,1277.3 968.3,1282.6 	"/>
	<g id="XMLID_1_" class="st5">
		<g>
			<path class="st6" d="M1150.5,449c-9.4-8.2-22.2-17.9-38.7-26.6c-16.5-8.7-31.7-13.8-43.7-16.9c-2,3-5.1,7.4-9.3,12.5
				c-13,15.9-28.2,28.9-28.2,28.9s1.2-5.5,3.6-16.9c5.1-9.2,10.1-18.4,15.2-27.6l-50.5-4c0,0-15.6,121.9-15.6,124.2
				c0,2.4,24.1,40.3,24.4,42.7c1.3,9.1,0.9,16.8,0,22.2c-4.3-0.9-9.6-2.5-15.3-5c-6-2.7-10.8-5.7-14.5-8.4
				c-3.4,2.6-7.9,5.5-13.4,8.1c-6.2,2.9-11.9,4.5-16.4,5.4c-0.8-3.5-1.9-9.7-0.4-17.3c1.3-7.1,4.1-12.2,6-15.1
				c6.8-10.5,13.6-21,20.3-31.5c-12.7-87-16.8-121.7-15.5-122.3c0,0,0.1,0,0.1-0.1c-0.1-0.8-54.7,4.4-54.7,4.4
				c2.2,2.6,11.8,13.7,17.7,26.3c5.4,11.4,4.3,16.4,5.6,20.4c0,0,0,0.1,0,0.1c-0.4,0.3-12.6-11.6-21.4-21.6
				c-4.9-5.7-11.8-14.2-19-25.9c-10.2,2.2-21.6,5.3-33.7,9.7c-16.6,6-30.8,12.9-42.5,19.6c7.9-15.6,18.1-33,31.3-51.1
				c9-12.4,18.1-23.3,26.7-32.7c8,7,15.5,9.4,20,10.4c9.6,2.1,17.5,0.1,29.3-2.9c9-2.3,16.5-5.1,22-7.5L978,392
				c14-14,27.9-27.9,41.9-41.9c10.5,5,19.6,7.7,26,9.2c10.6,2.6,16.6,4,24.2,2.3c9.8-2.1,16.4-8,19.7-11.5
				c11.6,15.5,23.6,33.1,35.5,52.8C1135,418.9,1143.3,434.4,1150.5,449z"/>
		</g>
		<g>
			<path class="st7" d="M978,392l-37.9-41.9c-5.6,2.4-13,5.2-22,7.5c-11.8,3-19.7,4.9-29.3,2.9c-4.5-1-12-3.4-20-10.4
				c-8.7,9.4-17.7,20.3-26.7,32.7c-13.2,18.1-23.4,35.5-31.3,51.1c11.7-6.7,25.9-13.6,42.5-19.6c12.1-4.3,23.4-7.5,33.7-9.7
				c7.2,11.7,14.1,20.3,19,25.9c8.7,10,21,22,21.4,21.6c0,0,0-0.1,0-0.1c-1.3-4-0.2-9-5.6-20.4c-5.9-12.5-15.5-23.7-17.7-26.3
				c0,0,54.6-5.2,54.7-4.4c0,0-0.1,0.1-0.1,0.1c-1.3,0.6,2.8,35.3,15.5,122.3c-6.8,10.5-13.6,21-20.3,31.5c-1.9,2.9-4.7,8.1-6,15.1
				c-1.4,7.6-0.4,13.8,0.4,17.3c4.5-0.9,10.2-2.5,16.4-5.4c5.5-2.6,10-5.5,13.4-8.1c3.7,2.7,8.5,5.8,14.5,8.4c5.7,2.6,11,4.1,15.3,5
				c0.9-5.3,1.3-13.1,0-22.2c-0.3-2.4-24.4-40.3-24.4-42.7c0-2.4,15.6-124.2,15.6-124.2l50.5,4c-5.1,9.2-10.1,18.4-15.2,27.6
				c-2.5,11.5-3.6,16.9-3.6,16.9s15.2-13,28.2-28.9c4.1-5.1,7.2-9.5,9.3-12.5c12,3.1,27.2,8.2,43.7,16.9
				c16.5,8.7,29.3,18.4,38.7,26.6c-7.2-14.6-15.5-30.1-25.2-46.1c-11.8-19.7-23.8-37.3-35.5-52.8c-3.3,3.5-10,9.4-19.7,11.5
				c-7.6,1.7-13.7,0.3-24.2-2.3c-6.4-1.5-15.5-4.3-26-9.2C1006,364.1,992,378,978,392z"/>
		</g>
	</g>
	<path class="st8" d="M927.7,486.2"/>
	<path class="st7" d="M1047.1,464.9"/>
</g>
</svg>
